<svg width="321.000000" height="35.000000" viewBox="0 0 321 35" fill="none" xmlns="http://www.w3.org/2000/svg" xmlns:xlink="http://www.w3.org/1999/xlink">
	<desc>
			Created with Pixso.
	</desc>
	<defs/>
	<path id="Лого" d="M-0.65 3.5C-0.69 3.08 -0.7 2.64 -0.7 2.24C-0.7 1.52 -0.64 0.9 -0.54 0.7C-0.32 0.16 2.97 0 13.23 0C24.7 0 26.73 0.1 26.94 0.8C27.11 1.23 27.22 2.26 27.22 3.12C27.22 3.93 27 4.9 26.78 5.22C26.51 5.76 23.21 5.86 -0.48 5.65L-0.65 3.5ZM43.29 3.17C44 2.2 45.43 1.13 46.47 0.75C47.79 0.26 51.41 0.05 68.91 0L68.91 5.92L59.31 6.08C50.97 6.19 49.6 6.29 48.78 7.16C47.9 8.02 47.79 9.2 47.79 17.17C47.79 25.52 47.9 26.38 48.89 27.4C49.93 28.48 50.59 28.53 68.63 28.8L68.63 34.73L58.21 34.73C48.78 34.73 47.62 34.62 45.87 33.65C44.66 32.95 43.46 31.55 42.58 29.88C41.26 27.35 41.21 26.7 41.21 18.03C41.21 13.03 41.37 7.96 41.59 6.89C41.86 5.76 42.63 4.09 43.29 3.17ZM84.1 4.84C84.92 3.06 85.91 2.09 87.67 1.23C89.81 0.1 90.74 0 98.8 0C106.37 0 107.91 0.16 109.94 1.07C111.58 1.83 112.57 2.79 113.45 4.46C114.55 6.46 114.71 7.7 114.87 15.88C114.93 17.84 114.97 19.46 114.97 20.83C114.97 24.51 114.74 26.35 114.22 28.16C113.61 30.26 112.85 31.66 111.69 32.57C110.76 33.33 109.01 34.19 107.74 34.51C106.37 34.83 102.09 35 97.43 34.89C90.68 34.78 89.2 34.56 87.56 33.65C86.35 32.95 85.14 31.55 84.27 29.88C82.95 27.29 82.89 26.76 82.89 17.23C82.89 8.13 83 7.05 84.1 4.84ZM128.81 17.17C128.92 5.16 129.14 1.56 129.74 0.91C130.29 0.21 131.39 0 134.4 0C136.54 0 138.63 0.21 138.96 0.43C139.34 0.64 141.64 5.54 144 11.3C146.42 17.06 148.66 21.8 149.05 21.8C149.43 21.8 151.52 17.44 153.66 12.11C155.85 6.78 158.04 1.88 158.54 1.23C159.31 0.16 159.91 0 163.15 0C165.18 0 167.1 0.21 167.48 0.43C167.81 0.64 168.36 1.45 168.69 2.31C169.07 3.23 169.29 9.31 169.29 18.73C169.29 29.72 169.13 33.81 168.63 34.35C168.25 34.67 166.93 35 165.61 35C164.02 35 163.15 34.73 162.98 34.19C162.82 33.76 162.71 28.16 162.71 21.8C162.71 12.81 162.54 10.28 162.05 10.39C161.67 10.5 159.75 14.48 157.77 19.16C155.8 23.9 153.77 28.43 153.27 29.23C152.39 30.53 151.96 30.69 149.16 30.69C146.91 30.69 145.7 30.36 144.99 29.72C144.5 29.23 142.25 24.5 140.05 19.22C137.91 13.94 135.94 9.69 135.72 9.69C135.45 9.69 135.28 15.07 135.28 21.7C135.28 30.36 135.12 33.81 134.62 34.35C134.24 34.67 132.92 35 131.61 35C129.63 35 129.19 34.78 128.97 33.81C128.85 33.31 128.76 29.28 128.76 23.9C128.76 21.82 128.78 19.53 128.81 17.17ZM183.94 4.84C184.76 3.06 185.75 2.09 187.5 1.23C189.64 0.1 190.57 0 198.64 0C206.21 0 207.74 0.16 209.77 1.07C211.42 1.83 212.4 2.79 213.28 4.46C214.38 6.46 214.54 7.7 214.71 15.88C214.77 17.84 214.8 19.46 214.8 20.83C214.8 24.51 214.57 26.35 214.05 28.16C213.45 30.26 212.68 31.66 211.53 32.57C210.65 33.33 208.84 34.19 207.58 34.51C206.21 34.83 201.93 35 197.27 34.89C190.52 34.78 189.04 34.56 187.39 33.65C186.18 32.95 184.98 31.55 184.1 29.88C182.78 27.29 182.73 26.76 182.73 17.23C182.73 8.13 182.84 7.05 183.94 4.84ZM228.53 17.23C228.53 2.85 228.59 2.09 229.63 1.07C230.67 0.05 231.44 0 242.41 0C250.53 0 254.42 0.21 255.36 0.7C256.12 1.02 257.22 2.2 257.82 3.23C258.58 4.51 258.87 5.89 258.87 8.44C258.87 8.67 258.87 8.9 258.87 9.15C258.87 11.84 258.59 13.78 257.99 14.96C257.55 15.77 257.33 16.23 257.33 16.66C257.33 17.09 257.55 17.5 257.99 18.2C258.59 19.11 258.98 21.21 259.14 23.96C259.2 24.84 259.23 25.59 259.23 26.23C259.23 28.16 258.95 29.23 258.21 30.85C257.33 32.73 256.56 33.59 255.14 34.19C253.65 34.83 250.8 35 231.27 35L228.53 32.3L228.53 17.23ZM272.85 14.36C272.85 6.61 273.04 0.51 273.24 0.32C273.51 0.1 274.99 0 279.27 0.26L279.27 34.73L276.53 34.89C274.72 35 273.62 34.78 273.4 34.35C273.18 33.97 272.91 26.22 272.85 17.17C272.85 16.22 272.85 15.28 272.85 14.36ZM293.37 14.37C293.33 12.02 293.31 9.77 293.31 7.8C293.31 3.86 293.39 1.04 293.53 0.75C293.75 0.16 294.52 0 299.57 0.26L299.84 13.24C300.12 25.3 300.17 26.38 301.21 27.4C302.26 28.48 302.8 28.59 310.54 28.53C316.46 28.53 318.99 28.7 319.48 29.18C319.86 29.56 320.14 30.74 320.19 31.76C320.19 32.79 319.86 33.97 319.48 34.35C318.93 34.83 316.41 35 309.44 34.89C301.27 34.73 299.9 34.62 298.2 33.65C296.99 32.95 295.78 31.55 294.9 29.88C293.59 27.29 293.53 26.81 293.37 14.37ZM235.39 6.29C235.15 6.44 234.99 10.33 234.99 15.32C234.99 16.06 235 16.82 235 17.6L235.11 28.53C248.99 28.53 251.57 28.32 252.01 27.89C252.39 27.51 252.67 26 252.72 24.5C252.72 22.99 252.39 21.53 252.01 21.16C251.57 20.78 249.05 20.46 245.81 20.35L240.33 20.19L240.33 14.26C249.05 14 251.57 13.67 252.01 13.29C252.41 12.95 252.67 11.7 252.67 10.26C252.67 10.12 252.67 9.99 252.67 9.85C252.67 7.53 252.45 6.89 251.57 6.46C250.97 6.19 247.18 5.92 243.18 5.92C239.12 5.92 235.66 6.08 235.39 6.29ZM92.06 6.35C91.34 6.62 90.46 7.37 90.03 8.07C89.42 9.09 89.2 11.41 89.2 17.12C89.2 21.32 89.48 25.41 89.81 26.27C90.14 27.08 90.68 27.89 91.01 28.1C91.4 28.32 94.91 28.53 98.8 28.53C104.12 28.53 106.21 28.37 107.03 27.78C108.02 27.08 108.13 26.27 108.29 17.93C108.34 15.72 108.36 14.04 108.36 12.74C108.36 9.1 108.14 8.45 107.41 7.53C106.37 6.24 106.04 6.19 99.79 6.08C96.22 6.03 92.77 6.13 92.06 6.35ZM191.89 6.35C191.18 6.62 190.3 7.37 189.86 8.07C189.26 9.09 189.04 11.41 189.04 17.12C189.04 21.32 189.31 25.41 189.64 26.27C189.97 27.08 190.52 27.89 190.85 28.1C191.23 28.32 194.74 28.53 198.64 28.53C203.96 28.53 206.04 28.37 206.86 27.78C207.85 27.08 207.96 26.27 208.13 17.93C208.17 15.72 208.2 14.04 208.2 12.74C208.2 9.1 207.98 8.45 207.25 7.53C206.21 6.24 205.88 6.19 199.62 6.08C196.06 6.03 192.6 6.13 191.89 6.35ZM-0.81 18.88C-0.81 16.9 -0.52 16.49 0.5 15.45L1.93 14L26.4 14.26L26.4 20.19L5.83 20.46L5.83 22.5C5.82 22.57 5.82 22.64 5.82 22.71C5.82 23.84 6.25 25.08 6.87 25.84C7.91 27.18 8.07 27.19 17.12 27.35L17.18 27.35C23.43 27.46 26.51 27.73 26.78 28.16C27 28.53 27.22 29.77 27.22 30.96C27.22 32.14 26.94 33.54 26.56 34.08C25.9 35 25.02 35.05 15.97 34.89C7.25 34.73 5.88 34.62 4.18 33.65C2.92 32.95 1.77 31.6 0.94 29.88C-0.1 27.78 -0.48 26.06 -0.7 22.07C-0.76 20.68 -0.81 19.66 -0.81 18.88Z" fill="#FFFFFF" fill-opacity="1.000000" fill-rule="evenodd"/>
</svg>
